<mxfile host="app.diagrams.net" modified="2022-07-31T17:05:57.373Z" agent="5.0 (Windows NT 10.0; Win64; x64) AppleWebKit/537.36 (KHTML, like Gecko) Chrome/102.0.5005.134 YaBrowser/22.7.1.806 Yowser/2.5 Safari/537.36" etag="jYHdBv7AA5HZr2QpvI7R" version="20.2.2" type="github">
  <diagram id="SBwbRePJ2c8m1DRj_hKI" name="Страница 1">
    <mxGraphModel dx="1038" dy="575" grid="1" gridSize="10" guides="1" tooltips="1" connect="1" arrows="1" fold="1" page="1" pageScale="1" pageWidth="827" pageHeight="1169" math="0" shadow="0">
      <root>
        <mxCell id="0" />
        <mxCell id="1" parent="0" />
        <mxCell id="Es_s32T5T8fHPbCg-Upx-3" value="" style="edgeStyle=orthogonalEdgeStyle;rounded=0;orthogonalLoop=1;jettySize=auto;html=1;" edge="1" parent="1" source="Es_s32T5T8fHPbCg-Upx-1" target="Es_s32T5T8fHPbCg-Upx-2">
          <mxGeometry relative="1" as="geometry" />
        </mxCell>
        <mxCell id="Es_s32T5T8fHPbCg-Upx-1" value="Старт" style="ellipse;whiteSpace=wrap;html=1;" vertex="1" parent="1">
          <mxGeometry x="270" y="40" width="100" height="80" as="geometry" />
        </mxCell>
        <mxCell id="Es_s32T5T8fHPbCg-Upx-5" value="" style="edgeStyle=orthogonalEdgeStyle;rounded=0;orthogonalLoop=1;jettySize=auto;html=1;" edge="1" parent="1" source="Es_s32T5T8fHPbCg-Upx-2" target="Es_s32T5T8fHPbCg-Upx-4">
          <mxGeometry relative="1" as="geometry" />
        </mxCell>
        <mxCell id="Es_s32T5T8fHPbCg-Upx-2" value="Массив [n]" style="shape=parallelogram;perimeter=parallelogramPerimeter;whiteSpace=wrap;html=1;fixedSize=1;" vertex="1" parent="1">
          <mxGeometry x="250" y="170" width="140" height="60" as="geometry" />
        </mxCell>
        <mxCell id="Es_s32T5T8fHPbCg-Upx-7" value="" style="edgeStyle=orthogonalEdgeStyle;rounded=0;orthogonalLoop=1;jettySize=auto;html=1;" edge="1" parent="1" source="Es_s32T5T8fHPbCg-Upx-4" target="Es_s32T5T8fHPbCg-Upx-6">
          <mxGeometry relative="1" as="geometry" />
        </mxCell>
        <mxCell id="Es_s32T5T8fHPbCg-Upx-4" value="массив=0" style="whiteSpace=wrap;html=1;" vertex="1" parent="1">
          <mxGeometry x="260" y="270" width="120" height="60" as="geometry" />
        </mxCell>
        <mxCell id="Es_s32T5T8fHPbCg-Upx-9" value="" style="edgeStyle=orthogonalEdgeStyle;rounded=0;orthogonalLoop=1;jettySize=auto;html=1;" edge="1" parent="1" source="Es_s32T5T8fHPbCg-Upx-6" target="Es_s32T5T8fHPbCg-Upx-8">
          <mxGeometry relative="1" as="geometry" />
        </mxCell>
        <mxCell id="Es_s32T5T8fHPbCg-Upx-15" value="" style="edgeStyle=orthogonalEdgeStyle;rounded=0;orthogonalLoop=1;jettySize=auto;html=1;" edge="1" parent="1" source="Es_s32T5T8fHPbCg-Upx-6" target="Es_s32T5T8fHPbCg-Upx-14">
          <mxGeometry relative="1" as="geometry" />
        </mxCell>
        <mxCell id="Es_s32T5T8fHPbCg-Upx-6" value="массив &amp;lt;=3" style="rhombus;whiteSpace=wrap;html=1;" vertex="1" parent="1">
          <mxGeometry x="260" y="400" width="120" height="80" as="geometry" />
        </mxCell>
        <mxCell id="Es_s32T5T8fHPbCg-Upx-13" value="" style="edgeStyle=orthogonalEdgeStyle;rounded=0;orthogonalLoop=1;jettySize=auto;html=1;" edge="1" parent="1" source="Es_s32T5T8fHPbCg-Upx-8">
          <mxGeometry relative="1" as="geometry">
            <mxPoint x="320" y="370" as="targetPoint" />
            <Array as="points">
              <mxPoint x="490" y="370" />
            </Array>
          </mxGeometry>
        </mxCell>
        <mxCell id="Es_s32T5T8fHPbCg-Upx-8" value="массив +1" style="rhombus;whiteSpace=wrap;html=1;" vertex="1" parent="1">
          <mxGeometry x="450" y="400" width="80" height="80" as="geometry" />
        </mxCell>
        <mxCell id="Es_s32T5T8fHPbCg-Upx-10" value="нет" style="text;html=1;align=center;verticalAlign=middle;resizable=0;points=[];autosize=1;strokeColor=none;fillColor=none;" vertex="1" parent="1">
          <mxGeometry x="390" y="415" width="40" height="30" as="geometry" />
        </mxCell>
        <mxCell id="Es_s32T5T8fHPbCg-Upx-14" value="печать массива" style="whiteSpace=wrap;html=1;" vertex="1" parent="1">
          <mxGeometry x="250" y="540" width="140" height="45" as="geometry" />
        </mxCell>
        <mxCell id="Es_s32T5T8fHPbCg-Upx-16" value="да" style="text;html=1;strokeColor=none;fillColor=none;align=center;verticalAlign=middle;whiteSpace=wrap;rounded=0;" vertex="1" parent="1">
          <mxGeometry x="270" y="490" width="60" height="30" as="geometry" />
        </mxCell>
      </root>
    </mxGraphModel>
  </diagram>
</mxfile>
